PathFileType	4	(X/Y/Z)	/Users/niels/Desktop/University/Third Semester/Perception and Action/Exam/Gymnastics Motion Tracking/Code for Gym Tracking/Analyzed Data/Webcam_Backflip/id10_1_baseline_Sports2D/id10_1_baseline_Sports2D_px_person00.trc
DataRate	CameraRate	NumFrames	NumMarkers	Units	OrigDataRate	OrigDataStartFrame	OrigNumFrames
29.705882352941178	29.705882352941178	8	22	m	29.705882352941178	76	102
Frame#	Time	Hip			RHip			RKnee			RAnkle			RBigToe			RSmallToe			RHeel			LHip			LKnee			LAnkle			LBigToe			LSmallToe			LHeel			Neck			Head			Nose			RShoulder			RElbow			RWrist			LShoulder			LElbow			LWrist		
		X1	Y1	Z1	X2	Y2	Z2	X3	Y3	Z3	X4	Y4	Z4	X5	Y5	Z5	X6	Y6	Z6	X7	Y7	Z7	X8	Y8	Z8	X9	Y9	Z9	X10	Y10	Z10	X11	Y11	Z11	X12	Y12	Z12	X13	Y13	Z13	X14	Y14	Z14	X15	Y15	Z15	X16	Y16	Z16	X17	Y17	Z17	X18	Y18	Z18	X19	Y19	Z19	X20	Y20	Z20	X21	Y21	Z21	X22	Y22	Z22
76	2.5584158415841585	1.2243277675691882	-0.5594625407874558	0.0	1.1986356286452753	-0.5602622787252368	0.0	1.1445702946855458	-0.8044322763997542	0.0	0.9790092465804002	-0.9711468430650172	0.0	0.9944072491920262	-1.0601235436579604	0.0	0.9693108564273752	-1.0538120765377303	0.0	0.9511609392257279	-0.9800676458570109	0.0	1.2569440932181264	-0.5694706022341186	0.0	1.2795743671220454	-0.7974814151816377	0.0	1.260624001414459	-1.0062400532073117	0.0	1.3452308895604153	-1.045740127012198	0.0	1.3377721306363117	-1.0376977375562435	0.0	1.237404140993589	-1.0341995548872118	0.0	1.311775114085064	-0.2753689924050246	0.0	1.3591956476369558	-0.14220883088399003	0.0	1.3728540149502617	-0.21943971740243662	0.0	1.3084610050829366	-0.3114145672906856	0.0	1.482140817488978	-0.3230563851328258	0.0	1.5705252180437936	-0.23367072995257437	0.0	1.2895879510490258	-0.2965484959118917	0.0	1.4386357002512593	-0.30863371451566274	0.0	1.5153409890243745	-0.25062566776196327	0.0
77	2.592079207920792	1.2269484079547142	-0.5578704329029581	0.0	1.2025792173001504	-0.5589446826812957	0.0	1.14622468657561	-0.8043615778270483	0.0	0.9840082575722904	-0.9724977080590365	0.0	1.0000170402125592	-1.0579127342956385	0.0	0.9758614013215692	-1.0518268243598634	0.0	0.9568742090122893	-0.9829676110284796	0.0	1.257990781511146	-0.5681687604680423	0.0	1.2813685450066856	-0.7965515099166355	0.0	1.261226239469783	-1.0067603994532397	0.0	1.3443896218230587	-1.0446884806849148	0.0	1.3375668153280433	-1.0371055379862395	0.0	1.2374015080662966	-1.0341421266005921	0.0	1.3186974998691616	-0.2743924443770211	0.0	1.3664792182505134	-0.14221696734474923	0.0	1.380300109277664	-0.2183723380791761	0.0	1.3157344559014805	-0.31111615903048945	0.0	1.4888359622132614	-0.3224746241211988	0.0	1.5804046690145777	-0.23509345279012273	0.0	1.2911628906096524	-0.29559111187405374	0.0	1.4450804145558684	-0.3102042740699004	0.0	1.5193031916960413	-0.2587862160015477	0.0
78	2.625742574257426	1.2291315768504605	-0.5567432427185268	0.0	1.2062668082880244	-0.557917043722643	0.0	1.1474097240408516	-0.804131470606928	0.0	0.9897556525371453	-0.9756813845133766	0.0	1.0076356657291397	-1.0568963213765	0.0	0.9836816320747236	-1.051283080250037	0.0	0.9633738212553642	-0.9881231747004922	0.0	1.2581267410322097	-0.5674130867235274	0.0	1.2835809168940226	-0.795713326129926	0.0	1.2620192945377602	-1.0075009039567304	0.0	1.3445273828443374	-1.0438380399742613	0.0	1.338077119559521	-1.036775886099905	0.0	1.2374773284126972	-1.0340027973082075	0.0	1.3242329339104473	-0.273549793127507	0.0	1.372281806611378	-0.1421605986813416	0.0	1.3866316873621927	-0.2177162761058553	0.0	1.322103916432047	-0.31147409281046534	0.0	1.494074051345033	-0.32390526098285316	0.0	1.5898048095886579	-0.23875878767952588	0.0	1.2915718538065328	-0.2947831953434047	0.0	1.4498326776083106	-0.3113022975764647	0.0	1.5220672266632609	-0.26517014823993645	0.0
79	2.6594059405940595	1.2308931768957712	-0.5560408615275332	0.0	1.2094875687954483	-0.5572498488186832	0.0	1.14793343882936	-0.8038587447143204	0.0	0.9966244640477595	-0.9810418704134994	0.0	1.0174413024720281	-1.0572168927417462	0.0	0.9927772121591645	-1.0524732229429166	0.0	0.9712287927902238	-0.9957997357328245	0.0	1.2577426805108118	-0.5671531951819547	0.0	1.2866332891675316	-0.7950363002097001	0.0	1.2630257776933995	-1.0083763711463287	0.0	1.3454622663592883	-1.043378980516586	0.0	1.3390382730063077	-1.0367600707859723	0.0	1.2376422726328298	-1.033813554746708	0.0	1.328380498594734	-0.273059129783494	0.0	1.3765333931366344	-0.14205992845572415	0.0	1.3917333336148605	-0.21773085197290024	0.0	1.3271563084868203	-0.3126182914325398	0.0	1.4972027081007113	-0.32908254807141435	0.0	1.5978990773924895	-0.24821211170661342	0.0	1.2917354868578663	-0.2943499679447692	0.0	1.4520925540872287	-0.3130513363543575	0.0	1.5232113425470641	-0.2698890638067929	0.0
80	2.6930693069306932	1.23226143893649	-0.5558030152626222	0.0	1.212013274734096	-0.55697759395459	0.0	1.1478837982867829	-0.8036227853911154	0.0	1.0051391113539279	-0.9887544976816791	0.0	1.0296962515303132	-1.0584249187686334	0.0	1.0033888433871125	-1.0551716490572032	0.0	0.9811273211607453	-1.0060006401542638	0.0	1.257489256705906	-0.5672059582258465	0.0	1.290776261744744	-0.7943675611077972	0.0	1.2641443168760402	-1.009193567859302	0.0	1.3467065057128802	-1.0433919686212445	0.0	1.3401373544111428	-1.0370300662770136	0.0	1.2377140992511022	-1.0336209366149847	0.0	1.3313007144981295	-0.27296013652045725	0.0	1.3792559839813416	-0.14191685335461562	0.0	1.3954708238926354	-0.21832618185151906	0.0	1.330678018279906	-0.3145961782273563	0.0	1.4970680854118068	-0.339678869707492	0.0	1.6028945305378222	-0.2669480292133271	0.0	1.2927064984084717	-0.2945443910866002	0.0	1.450868233359054	-0.3166272620360217	0.0	1.522130730667682	-0.2735562840781594	0.0
81	2.726732673267327	1.2333794054831122	-0.5561898482689077	0.0	1.2136120264262946	-0.5571583816514755	0.0	1.1476926415415363	-0.8034069924140108	0.0	1.0159592146677439	-0.9985612995716395	0.0	1.0449190425253139	-1.0601570888617198	0.0	1.0161272422638854	-1.0590912516256454	0.0	0.9937086664543893	-1.018130207914753	0.0	1.2580923946696032	-0.5675346349367718	0.0	1.2960592636533417	-0.7935196452058727	0.0	1.2652051624521783	-1.0097128139202614	0.0	1.347873331008559	-1.0439561627599203	0.0	1.341181476210894	-1.0375555178383462	0.0	1.2374507666216814	-1.0335044933388728	0.0	1.333244030522223	-0.27307506139171617	0.0	1.3806441244643015	-0.1416897928911331	0.0	1.3977558087169037	-0.21916954307415615	0.0	1.3320375460452145	-0.3172459537240553	0.0	1.4915776522808881	-0.35669418541783215	0.0	1.601576542782701	-0.2979014587672521	0.0	1.295638686585299	-0.29566099278091246	0.0	1.445956292056427	-0.32286448111856897	0.0	1.5186241158396145	-0.27706227939192857	0.0
82	2.7603960396039606	1.2345260704302865	-0.5574984013421607	0.0	1.2142656347391358	-0.5580154128314181	0.0	1.1480880217320204	-0.8032266158508425	0.0	1.0296411878848224	-1.009659784520992	0.0	1.06347407726927	-1.062579895539384	0.0	1.0316292349658058	-1.064172113580622	0.0	1.009395758122011	-1.0310041401399168	0.0	1.2600613644109049	-0.5684403755147326	0.0	1.3023371844999083	-0.7925344500565438	0.0	1.2659843354728528	-1.0097168523972198	0.0	1.3488987167574054	-1.045081953454328	0.0	1.3421109362167243	-1.0383228068168777	0.0	1.236738423446053	-1.0335060249038195	0.0	1.334417713464111	-0.273187502564354	0.0	1.3810380583816606	-0.14133437777995528	0.0	1.3986491852156269	-0.21989562823201866	0.0	1.330187233924359	-0.32005636919017266	0.0	1.477678045052343	-0.37965922142838493	0.0	1.588947541867761	-0.3425316006111528	0.0	1.301489002869716	-0.2980882601415565	0.0	1.4384914737057717	-0.3322960288744773	0.0	1.5130271776616961	-0.2817055923335752	0.0
83	2.7940594059405943	1.2360591838979562	-0.5601243018201408	0.0	1.21425146947331	-0.5599956650390969	0.0	1.1498364440234683	-0.8033033960096967	0.0	1.0462867540000713	-1.0208777287313224	0.0	1.0847154119411706	-1.0661532688503939	0.0	1.0498912933343558	-1.0703708576168476	0.0	1.0282230705745294	-1.0432863054557282	0.0	1.2635764643042802	-0.570503132232872	0.0	1.3093370081166515	-0.7917471348331552	0.0	1.2662520993600186	-1.0090284402656304	0.0	1.3498835741642994	-1.0466287721764032	0.0	1.3429354428557307	-1.039280838750053	0.0	1.23577372568817	-1.0335035716444962	0.0	1.334956807306764	-0.273229820689609	0.0	1.380876629976892	-0.14090615028372577	0.0	1.398382506162743	-0.22030343386651383	0.0	1.3243227591123656	-0.32227885286316277	0.0	1.4522651941361466	-0.4061251420743252	0.0	1.5588919166477107	-0.39904750837444025	0.0	1.3108786076364582	-0.3021484294494744	0.0	1.4306977988200187	-0.34526990599857976	0.0	1.5058727921053996	-0.2890640114685327	0.0
